<svg width="29" height="45" viewBox="0 0 29 45" fill="none" xmlns="http://www.w3.org/2000/svg">
<path d="M28.2169 30.9809C28.2169 32.9051 27.8605 34.7064 27.1477 36.3849C26.435 38.0633 25.377 39.482 23.9724 40.6397C22.4861 41.877 20.6944 42.8339 18.5972 43.5113C16.5004 44.1883 13.9044 44.5276 10.8099 44.5276C8.71312 44.5276 6.73827 44.4543 4.88535 44.3083C3.36357 44.1875 1.99324 44.0247 0.773511 43.8189C0.32686 43.7435 0 43.3703 0 42.9325V35.7392C0 35.2424 0.417559 34.84 0.93309 34.84C1.04176 34.84 1.14957 34.8586 1.25182 34.8944C2.18021 35.221 3.14453 35.5256 4.14521 35.8085C5.20152 36.1078 6.55345 36.2562 8.19973 36.2562C10.3324 36.2562 11.974 35.9808 13.1219 35.4304C14.2702 34.88 15.0873 34.1123 15.5763 33.1282C16.0431 32.1642 16.3075 31.1063 16.3682 29.9556C16.429 28.8049 16.4602 27.3346 16.4602 25.544V8.94346C16.4602 8.44665 16.0426 8.04425 15.5271 8.04425H6.98812C6.47259 8.04425 6.05503 7.64185 6.05503 7.14504V0H27.2842C27.7998 0 28.2173 0.402398 28.2173 0.899211V30.9809H28.2169Z" fill="white" fill-opacity="0.6"/>
</svg>
